<svg xmlns="http://www.w3.org/2000/svg" viewBox="0 0 960 960" fill="currentColor">
      <path d="M480,608.2c-17.7,0-34.4-3.3-49.9-10.1-15.6-6.8-29.1-15.9-40.6-27.4s-20.6-25.1-27.4-40.6-10.1-32.2-10.1-49.9,3.3-34.4,10.1-49.9,15.9-29.1,27.4-40.6,25.1-20.6,40.6-27.4c15.6-6.8,32.2-10.1,49.9-10.1s34.4,3.3,49.9,10.1c15.6,6.8,29.1,15.9,40.6,27.4s20.6,25.1,27.4,40.6c6.8,15.6,10.1,32.2,10.1,49.9s-3.3,34.4-10.1,49.9c-6.8,15.6-15.9,29.1-27.4,40.6s-25.1,20.6-40.6,27.4c-15.6,6.8-32.2,10.1-49.9,10.1h0Z"/>
</svg>