<svg xmlns="http://www.w3.org/2000/svg" viewBox="0 0 256 64" fill="currentColor">
    <path class="cls-1" d="M39.24,29.54c-.32,2.08-1.01,3.98-2.07,5.7-1.06,1.71-2.38,3.14-3.95,4.29-1.57,1.15-3.33,1.98-5.27,2.49-1.94.51-3.96.61-6.04.29v8.05h-11.12V11.95h11.12c2.68,0,5.17.4,7.47,1.19,2.3.79,4.24,1.94,5.83,3.44,1.59,1.5,2.76,3.35,3.52,5.54.76,2.19.93,4.66.5,7.42ZM28.11,27.21c0-1.02-.35-1.89-1.06-2.6-.71-.71-1.57-1.06-2.6-1.06h-2.54v7.36h2.54c1.02,0,1.89-.36,2.6-1.09.71-.72,1.06-1.6,1.06-2.62Z"/>
    <path class="cls-1" d="M69.59,11.95v38.41h-11.12v-13.72h-6.52v13.72h-11.12V11.95h11.12v13.56h6.52v-13.56h11.12Z"/>
    <path class="cls-1" d="M95.71,11.95l11.87,38.41h-11.13l-1.22-4.56h-11.6l-1.17,4.56h-11.12l11.87-38.41h12.5ZM91.63,35.05l-2.17-8.85-2.22,8.85h4.4Z"/>
    <path class="cls-1" d="M137.83,11.95v38.41h-10.6l-7.58-13.88v13.88h-10.33V11.95h10.54l6.68,15.1v-15.1h11.28Z"/>
    <path class="cls-1" d="M170.48,47.85c-1.8-1.8-3.22-3.91-4.26-6.33-.08-.18-.13-.37-.21-.56-.39.23-.77.38-1.13.44-.65.1-1.3.16-1.93.16-.57,0-1.12-.1-1.67-.29s-1.03-.48-1.46-.85-.76-.83-1.01-1.38c-.25-.55-.37-1.17-.37-1.88v-14.09h7.63v-11.13h-26.44v11.13h7.68v16.21c.25,1.91.89,3.68,1.92,5.32,1.04,1.64,2.34,3.07,3.9,4.29,1.56,1.22,3.3,2.17,5.2,2.86,1.9.69,3.83,1.03,5.77,1.03,1.84,0,3.64-.26,5.4-.77,1.29-.38,2.49-1.04,3.59-1.99-.93-.65-1.81-1.37-2.62-2.18Z"/>
    <path class="cls-1" d="M245.21,11.95v38.41h-11.13v-19.87l-7.04,9.38-6.94-9.38v19.87h-11.12V11.95h11.12l6.94,9.32,7.04-9.32h11.13Z"/>
    <path class="cls-1" d="M205.56,23.37c-1.04-2.42-2.46-4.53-4.27-6.33s-3.91-3.22-6.33-4.26c-2.42-1.04-5.01-1.56-7.76-1.56s-5.34.52-7.76,1.56c-2.42,1.04-4.53,2.46-6.33,4.26-1.8,1.8-3.22,3.91-4.26,6.33s-1.56,5.01-1.56,7.76.52,5.34,1.56,7.76c1.04,2.42,2.46,4.53,4.26,6.33,1.8,1.8,3.91,3.22,6.33,4.26,2.42,1.04,5.01,1.56,7.76,1.56s5.34-.52,7.76-1.56c2.42-1.04,4.53-2.46,6.33-4.26s3.22-3.91,4.27-6.33c1.04-2.42,1.56-5.01,1.56-7.76s-.52-5.34-1.56-7.76ZM200.06,29.68c-.77,1.1-3.69,4.05-3.69,5.56,0,1.43.45,2.36,1.23,3.92.78,1.57,1.79,3.23.62,3.79-1.23.58-2.34-.55-3.64-.28-1.41.3-1.19,1.99-2.59,2.45-1.62.53-2.48-1.55-4.79-1.49-2.3-.05-3.16,2.03-4.79,1.49-1.4-.46-1.18-2.15-2.59-2.45-1.3-.27-2.41.86-3.64.28-1.18-.56-.17-2.22.62-3.79.78-1.57,1.23-2.34,1.23-3.92s-2.97-4.52-3.69-5.56c-.61-.89-.29-2.42.62-3.14,1.57-1.23,2.91,2.18,4.14,2.18s1.23-1.29,1.23-6.22c0-2.85,1.97-4.24,3.8-4.92,1.97-.73,4.16-.73,6.14,0,1.83.68,3.8,2.07,3.8,4.92,0,4.93,0,6.22,1.23,6.22s2.58-3.42,4.14-2.18c.91.71,1.23,2.25.62,3.14Z"/>
</svg>